<?xml version="1.0" encoding="UTF-8" standalone="no"?>
<svg
   xmlns:dc="http://purl.org/dc/elements/1.1/"
   xmlns:cc="http://creativecommons.org/ns#"
   xmlns:rdf="http://www.w3.org/1999/02/22-rdf-syntax-ns#"
   xmlns:svg="http://www.w3.org/2000/svg"
   xmlns="http://www.w3.org/2000/svg"
   xmlns:sodipodi="http://sodipodi.sourceforge.net/DTD/sodipodi-0.dtd"
   xmlns:inkscape="http://www.inkscape.org/namespaces/inkscape"
   inkscape:version="1.0 (4035a4fb49, 2020-05-01)"
   sodipodi:docname="git-logo2.svg"
   id="svg4"
   version="1.1"
   enable-background="new 0 0 50 50"
   viewBox="0 0 50 50">
  <metadata
     id="metadata10">
    <rdf:RDF>
      <cc:Work
         rdf:about="">
        <dc:format>image/svg+xml</dc:format>
        <dc:type
           rdf:resource="http://purl.org/dc/dcmitype/StillImage" />
        <dc:title></dc:title>
      </cc:Work>
    </rdf:RDF>
  </metadata>
  <defs
     id="defs8" />
  <sodipodi:namedview
     inkscape:document-rotation="0"
     pagecolor="#ffffff"
     bordercolor="#666666"
     borderopacity="1"
     objecttolerance="10"
     gridtolerance="10"
     guidetolerance="10"
     inkscape:pageopacity="0"
     inkscape:pageshadow="2"
     inkscape:window-width="1920"
     inkscape:window-height="1027"
     id="namedview6"
     showgrid="false"
     inkscape:zoom="10.96"
     inkscape:cx="7.4361314"
     inkscape:cy="25"
     inkscape:window-x="-8"
     inkscape:window-y="-8"
     inkscape:window-maximized="1"
     inkscape:current-layer="svg4" />
  <path
     fill-rule="evenodd"
     clip-rule="evenodd"
     fill="#181616"
     d="M 25.082685,0.5 C 11.2036,0.5 0,11.71824 0,25.615462 c 0,11.050804 7.1903698,20.427243 17.223444,23.775971 1.337743,0.167437 1.672179,-0.502309 1.672179,-1.172054 V 43.866032 C 11.872471,45.372959 10.36751,40.517303 10.36751,40.517303 9.1969846,37.670884 7.5248056,36.833702 7.5248056,36.833702 5.183755,35.326775 7.6920234,35.326775 7.6920234,35.326775 c 2.5082686,0.167436 3.8460126,2.511546 3.8460126,2.511546 2.173832,3.851037 5.852626,2.678982 7.357587,2.009237 0.167217,-1.674364 0.836089,-2.678983 1.672179,-3.348729 C 15.049611,35.829084 9.1969846,33.65241 9.1969846,24.108535 c 0,-2.678983 1.0033074,-5.023093 2.5082684,-6.697457 -0.334436,-0.669746 -1.170525,-3.181292 0.167218,-6.697457 0,0 2.173833,-0.669745 6.855934,2.511547 2.006615,-0.50231 4.180448,-0.837182 6.35428,-0.837182 2.173833,0 4.347665,0.334872 6.35428,0.837182 4.849319,-3.181292 6.855934,-2.511547 6.855934,-2.511547 1.337744,3.516165 0.501655,6.027711 0.167219,6.697457 1.672179,1.674364 2.508268,4.018474 2.508268,6.697457 0,9.711312 -5.852627,11.720549 -11.370817,12.390294 0.836089,0.837183 1.672179,2.34411 1.672179,4.68822 v 6.864893 c 0,0.669746 0.501653,1.506928 1.672179,1.172055 C 42.975001,45.875269 49.998152,36.498829 49.998152,25.448026 50.165371,11.71824 38.961771,0.5 25.082685,0.5 Z"
     id="path2"
     style="fill:#191919;fill-opacity:1;stroke-width:1.67327" />
</svg>
