<?xml version="1.0" encoding="UTF-8" standalone="no"?>
<svg
   xmlns:dc="http://purl.org/dc/elements/1.1/"
   xmlns:cc="http://creativecommons.org/ns#"
   xmlns:rdf="http://www.w3.org/1999/02/22-rdf-syntax-ns#"
   xmlns:svg="http://www.w3.org/2000/svg"
   xmlns="http://www.w3.org/2000/svg"
   xmlns:sodipodi="http://sodipodi.sourceforge.net/DTD/sodipodi-0.dtd"
   xmlns:inkscape="http://www.inkscape.org/namespaces/inkscape"
   viewBox="0 0 50 50"
   enable-background="new 0 0 50 50"
   version="1.1"
   id="svg4"
   sodipodi:docname="git-logo2.svg"
   inkscape:version="1.0 (4035a4fb49, 2020-05-01)">
  <metadata
     id="metadata10">
    <rdf:RDF>
      <cc:Work
         rdf:about="">
        <dc:format>image/svg+xml</dc:format>
        <dc:type
           rdf:resource="http://purl.org/dc/dcmitype/StillImage" />
        <dc:title></dc:title>
      </cc:Work>
    </rdf:RDF>
  </metadata>
  <defs
     id="defs8" />
  <sodipodi:namedview
     inkscape:document-rotation="0"
     pagecolor="#ffffff"
     bordercolor="#666666"
     borderopacity="1"
     objecttolerance="10"
     gridtolerance="10"
     guidetolerance="10"
     inkscape:pageopacity="0"
     inkscape:pageshadow="2"
     inkscape:window-width="958"
     inkscape:window-height="1018"
     id="namedview6"
     showgrid="false"
     inkscape:zoom="10.96"
     inkscape:cx="7.4361314"
     inkscape:cy="25"
     inkscape:window-x="953"
     inkscape:window-y="0"
     inkscape:window-maximized="0"
     inkscape:current-layer="svg4" />
  <path
     fill-rule="evenodd"
     clip-rule="evenodd"
     fill="#181616"
     d="m 25.126034,0.87591241 c -13.822294,0 -24.9800486,11.15775459 -24.9800486,24.98004959 0,10.991221 7.1609476,20.317106 17.1529666,23.647779 1.33227,0.166534 1.665336,-0.4996 1.665336,-1.165736 V 44.008131 C 11.969875,45.506934 10.471072,40.677457 10.471072,40.677457 9.3053371,37.846385 7.6399995,37.013716 7.6399995,37.013716 5.3085289,35.514915 7.806534,35.514915 7.806534,35.514915 c 2.498005,0.166533 3.830274,2.498003 3.830274,2.498003 2.164937,3.830275 5.828677,2.664539 7.32748,1.998405 0.166533,-1.665337 0.832669,-2.664539 1.665336,-3.330673 -5.49561,-0.666134 -11.3242869,-2.831073 -11.3242869,-12.323491 0,-2.664539 0.9992019,-4.996009 2.4980039,-6.661347 -0.333067,-0.666134 -1.165735,-3.164139 0.166534,-6.661346 0,0 2.164937,-0.666135 6.82788,2.498004 1.998404,-0.499601 4.163341,-0.832667 6.328279,-0.832667 2.164937,0 4.329874,0.333066 6.328278,0.832667 4.829476,-3.164139 6.82788,-2.498004 6.82788,-2.498004 1.33227,3.497207 0.499601,5.995212 0.166535,6.661346 1.665336,1.665338 2.498004,3.996808 2.498004,6.661347 0,9.658952 -5.828678,11.657357 -11.324288,12.323491 0.832667,0.832667 1.665336,2.33147 1.665336,4.662942 v 6.82788 c 0,0.666134 0.499601,1.498803 1.665336,1.165735 C 42.945135,46.006535 49.939549,36.68065 49.939549,25.689429 50.106082,12.033667 38.948328,0.87591241 25.126034,0.87591241 Z"
     id="path2"
     style="fill:#14331a;fill-opacity:1;stroke-width:1.66533" />
</svg>
