<?xml version="1.0" encoding="UTF-8" standalone="no"?>
<svg
   xmlns:dc="http://purl.org/dc/elements/1.1/"
   xmlns:cc="http://creativecommons.org/ns#"
   xmlns:rdf="http://www.w3.org/1999/02/22-rdf-syntax-ns#"
   xmlns:svg="http://www.w3.org/2000/svg"
   xmlns="http://www.w3.org/2000/svg"
   xmlns:sodipodi="http://sodipodi.sourceforge.net/DTD/sodipodi-0.dtd"
   xmlns:inkscape="http://www.inkscape.org/namespaces/inkscape"
   inkscape:version="1.0 (4035a4fb49, 2020-05-01)"
   sodipodi:docname="git-logo.svg"
   id="svg4"
   version="1.1"
   enable-background="new 0 0 50 50"
   viewBox="0 0 50 50">
  <metadata
     id="metadata10">
    <rdf:RDF>
      <cc:Work
         rdf:about="">
        <dc:format>image/svg+xml</dc:format>
        <dc:type
           rdf:resource="http://purl.org/dc/dcmitype/StillImage" />
      </cc:Work>
    </rdf:RDF>
  </metadata>
  <defs
     id="defs8" />
  <sodipodi:namedview
     inkscape:current-layer="svg4"
     inkscape:window-maximized="1"
     inkscape:window-y="-8"
     inkscape:window-x="-8"
     inkscape:cy="25"
     inkscape:cx="7.4361314"
     inkscape:zoom="10.96"
     showgrid="false"
     id="namedview6"
     inkscape:window-height="715"
     inkscape:window-width="1366"
     inkscape:pageshadow="2"
     inkscape:pageopacity="0"
     guidetolerance="10"
     gridtolerance="10"
     objecttolerance="10"
     borderopacity="1"
     bordercolor="#666666"
     pagecolor="#ffffff" />
  <path
     style="fill:#14331a;fill-opacity:1"
     id="path2"
     d="M25 10c-8.3 0-15 6.7-15 15 0 6.6 4.3 12.2 10.3 14.2.8.1 1-.3 1-.7v-2.6c-4.2.9-5.1-2-5.1-2-.7-1.7-1.7-2.2-1.7-2.2-1.4-.9.1-.9.1-.9 1.5.1 2.3 1.5 2.3 1.5 1.3 2.3 3.5 1.6 4.4 1.2.1-1 .5-1.6 1-2-3.3-.4-6.8-1.7-6.8-7.4 0-1.6.6-3 1.5-4-.2-.4-.7-1.9.1-4 0 0 1.3-.4 4.1 1.5 1.2-.3 2.5-.5 3.8-.5 1.3 0 2.6.2 3.8.5 2.9-1.9 4.1-1.5 4.1-1.5.8 2.1.3 3.6.1 4 1 1 1.5 2.4 1.5 4 0 5.8-3.5 7-6.8 7.4.5.5 1 1.4 1 2.8v4.1c0 .4.3.9 1 .7 6-2 10.2-7.6 10.2-14.2C40 16.7 33.3 10 25 10z"
     fill="#181616"
     clip-rule="evenodd"
     fill-rule="evenodd" />
</svg>
