<?xml version="1.0" encoding="UTF-8" standalone="no"?>
<svg
   xmlns:dc="http://purl.org/dc/elements/1.1/"
   xmlns:cc="http://creativecommons.org/ns#"
   xmlns:rdf="http://www.w3.org/1999/02/22-rdf-syntax-ns#"
   xmlns:svg="http://www.w3.org/2000/svg"
   xmlns="http://www.w3.org/2000/svg"
   xmlns:sodipodi="http://sodipodi.sourceforge.net/DTD/sodipodi-0.dtd"
   xmlns:inkscape="http://www.inkscape.org/namespaces/inkscape"
   sodipodi:docname="location2.svg"
   inkscape:version="1.0 (4035a4fb49, 2020-05-01)"
   width="16.0px"
   height="16.0px"
   viewBox="0 0 16.0 16.0"
   version="1.1"
   id="SVGRoot">
  <defs
     id="defs857" />
  <sodipodi:namedview
     inkscape:lockguides="false"
     showguides="false"
     inkscape:window-maximized="1"
     inkscape:window-y="-8"
     inkscape:window-x="-8"
     inkscape:window-height="1027"
     inkscape:window-width="1920"
     showgrid="true"
     inkscape:document-rotation="0"
     inkscape:current-layer="layer1"
     inkscape:document-units="px"
     inkscape:cy="8.4205329"
     inkscape:cx="6.7772076"
     inkscape:zoom="32.8125"
     inkscape:pageshadow="2"
     inkscape:pageopacity="0.0"
     borderopacity="1.0"
     bordercolor="#666666"
     pagecolor="#ffffff"
     id="base">
    <inkscape:grid
       type="xygrid"
       id="grid866" />
  </sodipodi:namedview>
  <metadata
     id="metadata860">
    <rdf:RDF>
      <cc:Work
         rdf:about="">
        <dc:format>image/svg+xml</dc:format>
        <dc:type
           rdf:resource="http://purl.org/dc/dcmitype/StillImage" />
        <dc:title></dc:title>
      </cc:Work>
    </rdf:RDF>
  </metadata>
  <g
     id="layer1"
     inkscape:groupmode="layer"
     inkscape:label="Layer 1">
    <circle
       r="6.349925"
       transform="rotate(-90)"
       cy="7.9999995"
       cx="-7.000001"
       id="path925"
       style="fill:#14331a;stroke-width:0.793741" />
    <rect
       transform="rotate(-45)"
       y="10.606602"
       x="-5.6428185"
       height="6.349925"
       width="6.349925"
       id="rect927"
       style="fill:#14331a;stroke-width:0.793741" />
    <circle
       r="2"
       cy="7"
       cx="8"
       id="path1492"
       style="fill:#ffffff;fill-opacity:1" />
    <path
       id="path2565"
       d="M 5.5852932,13.532979 C 3.0577514,10.999329 2.9201521,10.848922 2.5420352,10.206447 1.6179321,8.6362617 1.4186149,6.7405929 1.9953681,5.0071996 2.7682217,2.6844397 4.8110575,1.0140688 7.2487892,0.71162118 7.6389676,0.66321198 8.4811497,0.67201388 8.8745214,0.72861208 10.939716,1.0257519 12.731684,2.3147848 13.657372,4.1691043 c 0.311325,0.6236386 0.515677,1.2750019 0.613661,1.9560195 0.0566,0.3933718 0.0654,1.2355539 0.01699,1.6257323 -0.164115,1.3227672 -0.745891,2.5801339 -1.635365,3.5344389 -0.117174,0.125714 -1.213132,1.226315 -2.435464,2.445779 L 7.9947738,15.948282 Z M 8.4956369,8.9528029 C 8.7720273,8.8876509 9.1489013,8.6816084 9.3700143,8.4747677 9.9457711,7.9361754 10.152562,7.1392526 9.9139342,6.3786281 9.8188451,6.0755324 9.666618,5.828194 9.4239209,5.5824547 8.4683985,4.6149567 6.8455663,4.8623212 6.2165627,6.0713455 6.058128,6.3758771 6.0010781,6.6223158 6.0005152,7.004606 c -5.455e-4,0.3700691 0.049749,0.5838279 0.2183918,0.9282158 0.234271,0.4784073 0.7331099,0.8771996 1.2744911,1.0188809 0.2228279,0.058315 0.7570331,0.058901 1.0022388,0.0011 z"
       style="opacity:1;fill:#191919;stroke:#d8e0d7;stroke-width:0.0182857;stroke-linejoin:round" />
  </g>
</svg>
